<svg width="24" height="23" viewBox="0 0 24 23" fill="none" xmlns="http://www.w3.org/2000/svg">
<g clip-path="url(#clip0_127_17)">
<path d="M15.2461 1.00096V7.3528H21.6818" stroke="#0B0B0B" stroke-width="1.5" stroke-linecap="round" stroke-linejoin="round"/>
<path d="M19.644 4.74757L22.2493 7.3528L19.644 9.95802" stroke="#0B0B0B" stroke-width="1.5" stroke-linecap="round" stroke-linejoin="round"/>
<path d="M19.5987 14.9879C18.3708 14.9866 17.1512 14.7862 15.9875 14.3946C15.7123 14.306 15.4185 14.291 15.1357 14.3509C14.8529 14.4109 14.5909 14.5438 14.3753 14.7364L12.3825 16.2647C12.3034 16.323 12.2097 16.3581 12.1117 16.3661C12.0137 16.3741 11.9155 16.3547 11.828 16.3099C9.62294 15.156 7.823 13.3561 6.66914 11.151C6.62092 11.066 6.59897 10.9686 6.60585 10.8711C6.61273 10.7736 6.64818 10.6803 6.70787 10.6029L8.19753 8.66828C8.41037 8.45577 8.55908 8.18755 8.62638 7.89441C8.69368 7.60126 8.67674 7.2951 8.57789 7.01103C8.18947 5.84648 7.98925 4.62746 7.98467 3.39985C7.98648 2.96753 7.81854 2.55172 7.51709 2.24183C7.21564 1.93194 6.80474 1.75265 6.37253 1.74252H2.63248C2.41743 1.74419 2.20463 1.78852 2.00683 1.87296C1.80904 1.9574 1.63001 2.08027 1.48005 2.23443C1.3301 2.38859 1.21232 2.571 1.13338 2.77105C1.05444 2.9711 1.01607 3.18483 1.02034 3.39985C1.03565 8.33952 3.00464 13.0725 6.49754 16.5654C9.99043 20.0583 14.7233 22.0273 19.663 22.0426C20.0947 22.0444 20.51 21.8763 20.8188 21.5747C21.1277 21.2731 21.3054 20.8621 21.3138 20.4305V16.7355C21.3208 16.5068 21.2816 16.2791 21.1983 16.066C21.1149 15.853 20.9892 15.659 20.8289 15.4957C20.6687 15.3325 20.4771 15.2033 20.2656 15.1161C20.0542 15.0288 19.8275 14.9852 19.5987 14.9879V14.9879Z" stroke="#0B0B0B" stroke-width="1.5" stroke-linecap="round" stroke-linejoin="round"/>
</g>
<defs>
<clipPath id="clip0_127_17">
<rect width="22.8279" height="22.57" fill="white" transform="translate(0.214355 0.214233)"/>
</clipPath>
</defs>
</svg>
