<svg width="23" height="23" viewBox="0 0 23 23" fill="none" xmlns="http://www.w3.org/2000/svg">
<g clip-path="url(#clip0_127_23)">
<path d="M4.1033 0.709152H2.11353C1.33782 0.709152 0.708984 1.33799 0.708984 2.1137V4.10347C0.708984 4.87918 1.33782 5.50801 2.11353 5.50801H4.1033C4.87901 5.50801 5.50785 4.87918 5.50785 4.10347V2.1137C5.50785 1.33799 4.87901 0.709152 4.1033 0.709152Z" stroke="#0B0B0B" stroke-width="1.5" stroke-linecap="round" stroke-linejoin="round"/>
<path d="M12.3035 0.709152H10.3137C9.53802 0.709152 8.90918 1.33799 8.90918 2.1137V4.10347C8.90918 4.87918 9.53802 5.50801 10.3137 5.50801H12.3035C13.0792 5.50801 13.708 4.87918 13.708 4.10347V2.1137C13.708 1.33799 13.0792 0.709152 12.3035 0.709152Z" stroke="#0B0B0B" stroke-width="1.5" stroke-linecap="round" stroke-linejoin="round"/>
<path d="M20.5105 0.709152H18.5208C17.745 0.709152 17.1162 1.33799 17.1162 2.1137V4.10347C17.1162 4.87918 17.745 5.50801 18.5208 5.50801H20.5105C21.2862 5.50801 21.9151 4.87918 21.9151 4.10347V2.1137C21.9151 1.33799 21.2862 0.709152 20.5105 0.709152Z" stroke="#0B0B0B" stroke-width="1.5" stroke-linecap="round" stroke-linejoin="round"/>
<path d="M4.1033 8.73021H2.11353C1.33782 8.73021 0.708984 9.35905 0.708984 10.1348V12.1245C0.708984 12.9002 1.33782 13.5291 2.11353 13.5291H4.1033C4.87901 13.5291 5.50785 12.9002 5.50785 12.1245V10.1348C5.50785 9.35905 4.87901 8.73021 4.1033 8.73021Z" stroke="#0B0B0B" stroke-width="1.5" stroke-linecap="round" stroke-linejoin="round"/>
<path d="M12.3035 8.73021H10.3137C9.53802 8.73021 8.90918 9.35905 8.90918 10.1348V12.1245C8.90918 12.9002 9.53802 13.5291 10.3137 13.5291H12.3035C13.0792 13.5291 13.708 12.9002 13.708 12.1245V10.1348C13.708 9.35905 13.0792 8.73021 12.3035 8.73021Z" stroke="#0B0B0B" stroke-width="1.5" stroke-linecap="round" stroke-linejoin="round"/>
<path d="M20.5105 8.73021H18.5208C17.745 8.73021 17.1162 9.35905 17.1162 10.1348V12.1245C17.1162 12.9002 17.745 13.5291 18.5208 13.5291H20.5105C21.2862 13.5291 21.9151 12.9002 21.9151 12.1245V10.1348C21.9151 9.35905 21.2862 8.73021 20.5105 8.73021Z" stroke="#0B0B0B" stroke-width="1.5" stroke-linecap="round" stroke-linejoin="round"/>
<path d="M4.1033 16.7513H2.11353C1.33782 16.7513 0.708984 17.3801 0.708984 18.1558V20.1456C0.708984 20.9213 1.33782 21.5501 2.11353 21.5501H4.1033C4.87901 21.5501 5.50785 20.9213 5.50785 20.1456V18.1558C5.50785 17.3801 4.87901 16.7513 4.1033 16.7513Z" stroke="#0B0B0B" stroke-width="1.5" stroke-linecap="round" stroke-linejoin="round"/>
<path d="M12.3035 16.7513H10.3137C9.53802 16.7513 8.90918 17.3801 8.90918 18.1558V20.1456C8.90918 20.9213 9.53802 21.5501 10.3137 21.5501H12.3035C13.0792 21.5501 13.708 20.9213 13.708 20.1456V18.1558C13.708 17.3801 13.0792 16.7513 12.3035 16.7513Z" stroke="#0B0B0B" stroke-width="1.5" stroke-linecap="round" stroke-linejoin="round"/>
<path d="M20.5105 16.7513H18.5208C17.745 16.7513 17.1162 17.3801 17.1162 18.1558V20.1456C17.1162 20.9213 17.745 21.5501 18.5208 21.5501H20.5105C21.2862 21.5501 21.9151 20.9213 21.9151 20.1456V18.1558C21.9151 17.3801 21.2862 16.7513 20.5105 16.7513Z" stroke="#0B0B0B" stroke-width="1.5" stroke-linecap="round" stroke-linejoin="round"/>
</g>
<defs>
<clipPath id="clip0_127_23">
<rect width="22.6242" height="22.2593" fill="white"/>
</clipPath>
</defs>
</svg>
