<svg width="22" height="29" viewBox="0 0 22 29" fill="none" xmlns="http://www.w3.org/2000/svg">
<path d="M15.7456 6.03848C15.7456 3.40448 13.6103 1.2692 10.9763 1.2692C8.34231 1.2692 6.20703 3.40448 6.20703 6.03848V13.3535C6.20703 15.9875 8.34231 18.1228 10.9763 18.1228C13.6103 18.1228 15.7456 15.9875 15.7456 13.3535V6.03848Z" stroke="#0B0B0B" stroke-width="1.5" stroke-linecap="round" stroke-linejoin="round"/>
<path d="M1.63428 15.2078C2.12379 17.3218 3.3148 19.2076 5.01346 20.5579C6.71213 21.9081 8.81809 22.6432 10.988 22.6432C13.158 22.6432 15.264 21.9081 16.9626 20.5579C18.6613 19.2076 19.8527 17.3218 20.3422 15.2078" stroke="#0B0B0B" stroke-width="1.5" stroke-linecap="round" stroke-linejoin="round"/>
<path d="M10.9844 22.9706V27.4335" stroke="#0B0B0B" stroke-width="1.5" stroke-linecap="round" stroke-linejoin="round"/>
<path d="M2 23L21 4.00002" stroke="#DADCE4" stroke-width="1.5" stroke-linecap="round"/>
<path d="M1 22L20 3.00002" stroke="#0B0B0B" stroke-width="1.5" stroke-linecap="round"/>
</svg>
